<svg xmlns="http://www.w3.org/2000/svg" viewBox="0 0 64 64">
  <rect width="64" height="64" rx="14" fill="#040711"/>
  <circle cx="32" cy="32" r="16" fill="#0e7490"/>
  <path fill="#22d3ee" d="M20 27c5-6 16-8 25-3 2 6 1 13-4 18-8 2-17 0-22-7-1-3-1-6 1-8Z"/>
  <path fill="#67e8f9" d="M18 37c7 7 22 9 34 4 3-1 5-1 6 1 1 3-7 8-19 10-16 2-31-2-34-8-1-2 1-4 4-3 3 1 6 0 9-4Z" opacity=".9"/>
  <path fill="none" stroke="#bae6fd" stroke-linecap="round" stroke-width="3" d="M8 39c9 9 31 13 49 3"/>
  <circle cx="26" cy="24" r="2" fill="#ecfeff"/>
</svg>
